Coordinates
version=1
nRows=11
nColumns=40
inDegrees=yes

Units are S.I. units (second, meters, Newtons, ...)
Angles are in degrees.

endheader
time	pelvis_tilt	pelvis_list	pelvis_rotation	pelvis_tx	pelvis_ty	pelvis_tz	hip_flexion_r	hip_adduction_r	hip_rotation_r	knee_angle_r	knee_angle_r_beta	ankle_angle_r	subtalar_angle_r	mtp_angle_r	hip_flexion_l	hip_adduction_l	hip_rotation_l	knee_angle_l	knee_angle_l_beta	ankle_angle_l	subtalar_angle_l	mtp_angle_l	lumbar_extension	lumbar_bending	lumbar_rotation	arm_flex_r	arm_add_r	arm_rot_r	elbow_flex_r	pro_sup_r	wrist_flex_r	wrist_dev_r	arm_flex_l	arm_add_l	arm_rot_l	elbow_flex_l	pro_sup_l	wrist_flex_l	wrist_dev_l
     27.92250000	     -4.00498588	     -5.53750857	     -1.78199940	      0.92510440	      0.92179959	      0.49072055	     21.13640059	      3.75267149	    -11.37015729	     20.62005299	     20.62005299	      5.76264020	     -1.44577862	     -4.85020791	      7.62342781	    -10.53692416	     -6.88947437	     40.33648780	     40.33648780	     14.42087631	    -17.69648417	     -3.53448268	     -8.96997125	      6.43023734	      0.84452063	     -0.85568143	    -12.68694576	    -13.68806314	     30.77997973	     47.02643293	      0.00000000	      0.00000000	      5.54223114	     -9.24736614	     -4.57174683	     50.51191948	     46.57675487	      0.00000000	      0.00000000
     27.93542857	     -3.94875656	     -5.67892089	     -1.45510337	      0.92525709	      0.92247042	      0.49284979	     20.51521600	      3.95008210	    -11.76384785	     20.47205930	     20.47205930	      6.10124099	     -1.18947555	     -4.94593782	      9.38408114	    -11.15590570	     -6.28451630	     43.97411672	     43.97411672	     13.07332843	    -18.21776495	     -3.08228112	     -9.13926994	      6.60829814	      0.97665706	      0.33539074	    -12.65485068	    -13.32227814	     31.67905432	     46.96588612	      0.00000000	      0.00000000	      5.10616565	     -8.96740828	     -4.39426883	     49.26577991	     46.54368344	      0.00000000	      0.00000000
     27.94835714	     -4.02121301	     -5.60016139	     -1.12438286	      0.92518646	      0.92294650	      0.49451872	     20.08816187	      3.82669545	    -12.32039623	     20.43285000	     20.43285000	      6.61296776	     -0.49445133	     -4.91751827	     11.50434145	    -11.26511390	     -5.29122538	     47.86176083	     47.86176083	     13.61285599	    -18.28178582	      2.63413153	     -9.06740559	      6.65422436	      1.41664842	      0.36253043	    -13.28220068	    -10.12434222	     34.78321998	     46.57768837	      0.00000000	      0.00000000	      6.11649545	     -8.30900101	     -4.25627442	     44.00154736	     46.49085402	      0.00000000	      0.00000000
     27.96128571	     -4.07911112	     -5.65898027	     -0.80959358	      0.92490769	      0.92325585	      0.49627171	     19.63935479	      3.91927315	    -12.69307320	     20.32738516	     20.32738516	      7.04899548	     -0.18251262	     -4.71247699	     13.54575940	    -11.58387306	     -4.51318290	     51.34848536	     51.34848536	     13.51021665	    -18.38199198	      6.36314900	     -9.13531187	      6.76307321	      1.71470961	      0.77405642	    -13.96275047	     -7.48167750	     37.47388925	     46.26813084	      0.00000000	      0.00000000	      5.76050488	     -7.96874231	     -4.24566438	     42.52506007	     46.46397395	      0.00000000	      0.00000000
     27.97421429	     -4.04465947	     -5.78567592	     -0.52432408	      0.92458791	      0.92363047	      0.49809146	     19.11422680	      4.10954055	    -12.99640432	     20.24198172	     20.24198172	      7.34369466	     -0.03385279	     -4.77171026	     15.26536813	    -12.04340511	     -3.98697187	     54.13751699	     54.13751699	     12.33743639	    -18.61613221	      6.72295478	     -9.27271415	      6.88534499	      1.94781313	      2.01096688	    -14.14454917	     -7.35718368	     38.17981417	     46.23856057	      0.00000000	      0.00000000	      5.01815677	     -7.81686300	     -4.16459350	     41.78332686	     46.44003525	      0.00000000	      0.00000000
     27.98714286	     -4.15625258	     -5.85672332	     -0.18669327	      0.92402616	      0.92381066	      0.49958743	     18.74381029	      4.20780912	    -13.34739942	     20.12598793	     20.12598793	      7.72249574	      0.20363196	     -4.79581076	     17.15380405	    -12.34693989	     -3.42041604	     56.57383552	     56.57383552	     11.63018247	    -18.74366536	      7.84100134	     -9.23646363	      7.05746622	      1.81245062	      3.36899759	    -14.27803839	     -6.98546827	     39.30705886	     46.17725426	      0.00000000	      0.00000000	      4.30241880	     -7.79856378	     -4.11616891	     40.40868697	     46.41522101	      0.00000000	      0.00000000
     28.00007143	     -3.93053485	     -5.63275806	      0.00031229	      0.92358157	      0.92469045	      0.50111402	     18.01993168	      4.06318879	    -13.34985476	     20.04476261	     20.04476261	      8.04176511	      0.25247236	     -4.83300271	     18.33059582	    -12.36865427	     -3.29705713	     58.21134547	     58.21134547	     10.90358062	    -18.85200086	      8.06683054	     -9.65347231	      6.73533978	      2.52630889	      4.41635774	    -14.50310883	     -6.93681062	     39.77413746	     46.16298658	      0.00000000	      0.00000000	      3.69383991	     -7.68943075	     -4.10279128	     39.95922008	     46.40316310	      0.00000000	      0.00000000
     28.01300000	     -4.15963370	     -5.78851845	      0.39066254	      0.92252261	      0.92473723	      0.50214960	     17.87749774	      4.16556833	    -13.92773377	     20.08887060	     20.08887060	      8.63313159	      0.73757910	     -4.03981381	     20.48296317	    -12.48380834	     -2.43932239	     60.11830446	     60.11830446	     12.41817784	    -18.71673097	     13.89387005	     -9.46151239	      7.07057007	      2.34235547	      5.22154301	    -15.65317254	     -3.47822033	     43.13411520	     45.82225879	      0.00000000	      0.00000000	      3.92066690	     -7.30190777	     -5.14810770	     36.16904387	     46.47845239	      0.00000000	      0.00000000
     28.02592857	     -4.19719742	     -5.79880925	      0.71903531	      0.92164157	      0.92523991	      0.50331468	     17.40068849	      4.23081658	    -14.16257908	     19.86601298	     19.86601298	      8.90423346	      0.83458413	     -4.04395893	     21.97000948	    -12.62411739	     -2.12468166	     60.87988847	     60.87988847	     12.13157890	    -18.76840726	     13.97520261	     -9.52940209	      7.11316197	      2.47856578	      6.61724663	    -15.86065829	     -3.49358075	     43.87643966	     45.80192618	      0.00000000	      0.00000000	      3.15933770	     -7.32630681	     -5.16389044	     35.44270466	     46.46344165	      0.00000000	      0.00000000
     28.03885714	     -4.20703958	     -5.72643518	      1.04222566	      0.92064651	      0.92589570	      0.50429621	     16.87121080	      4.21046586	    -14.36566028	     19.58885044	     19.58885044	      9.14759607	      0.94323782	     -3.98629802	     23.29562125	    -12.62659159	     -1.90108613	     61.04048683	     61.04048683	     12.12983333	    -18.81052905	     14.22256666	     -9.63745921	      7.06627970	      2.45480734	      8.12839461	    -16.03790631	     -3.38478129	     44.83646882	     45.76736700	      0.00000000	      0.00000000	      2.43815856	     -7.42452200	     -5.23731203	     34.43803259	     46.45516361	      0.00000000	      0.00000000
     28.05178571	     -4.24841668	     -5.57880368	      1.32816017	      0.91952392	      0.92657791	      0.50512220	     16.39482674	      4.12124919	    -14.46181502	     19.33794361	     19.33794361	      9.40537864	      0.93708289	     -3.98060098	     24.52266335	    -12.52748575	     -1.80932987	     60.62393399	     60.62393399	     12.18584377	    -18.83864191	     14.28620919	     -9.72409369	      6.94704802	      2.89847472	      9.45133536	    -16.46790189	     -3.45045945	     45.46240836	     45.75488419	      0.00000000	      0.00000000	      1.84993742	     -7.43703892	     -5.26409608	     33.96795982	     46.44731876	      0.00000000	      0.00000000
